<svg xmlns="http://www.w3.org/2000/svg" width="534" height="800" viewBox="0 0 744.094 1052.362"><path d="M487.756 524.944l-66.885 4.18s-18.811 1.394-30.656-1.393c0 0-11.495-2.09-25.081-19.508l-55.738-80.82s-3.215-4.358 1.392-6.786c-4.122-6.617-8.243-13.235-12.365-19.85-.757-1.216-1.265-2.2-1.527-2.95-.272-.827-.326-1.556-.162-2.181.164-.626.516-1.016 1.056-1.18.425-.127.86-.126 1.304-.003.445.124.902.332 1.372.623.47.291 1.015.684 1.64 1.18.624.495 1.276 1.01 1.953 1.543 7.847 6.023 16.004 11.68 24.444 17.05-5.033-6.55-10.066-13.097-15.1-19.646-.98-1.277-1.513-2.277-1.602-2.988-.088-.712.208-1.124.895-1.239.708-.118 1.519.106 2.431.66.914.557 1.876 1.45 2.88 2.686 6.817 8.387 13.633 16.774 20.448 25.163.61.748 1.055 1.414 1.357 2.01l61.547 7.302s18.114.697 34.836 19.508l55.737 58.524s5.574 2.439 6.967 12.541c.004 0-.344 4.877-11.143 5.574zM307.359 405.88l8.855 13.342a35.895 35.895 0 0 1 2.936-.18l8.677 1.03c-7.027-4.507-13.863-9.213-20.468-14.192zm113.512 68.9l-12.541-13.934c-8.593-9.754-19.508-9.754-19.508-9.754-9.29.232-5.574 5.573-5.574 5.573l12.541 16.722 11.148 12.54c9.754 6.968 16.72 6.968 16.72 6.968 5.342-.697 5.575-5.574 5.575-5.574-.464-3.484-8.361-12.54-8.361-12.54zm-52.347-56.69a23 23 0 0 1-8.414-.78c-2.023-.583-4.05-1.454-6.08-2.634-2.031-1.18-3.624-2.394-4.796-3.633-.68-.719-1.03-1.37-1.057-1.941-.025-.571.315-.899 1.025-.98.576-.065 1.255.08 2.038.43.783.35 1.694.893 2.736 1.627a39.893 39.893 0 0 0 3.385 2.152 14.794 14.794 0 0 0 3.217 1.32c1.135.318 2.307.423 3.51.338 1.656-.117 2.596-.56 2.808-1.348.213-.787-.3-1.725-1.526-2.853a13.39 13.39 0 0 0-3.186-2.185 17.406 17.406 0 0 0-3.492-1.28c-1.178-.288-2.663-.586-4.452-.873-2.407-.393-4.572-.843-6.494-1.39a24.607 24.607 0 0 1-5.632-2.403c-1.832-1.062-3.542-2.441-5.145-4.128-1.527-1.605-2.498-3.06-2.926-4.332-.428-1.27-.25-2.242.537-2.888.787-.647 2.143-.923 4.085-.82 1.551.084 3.116.396 4.698.906a32.873 32.873 0 0 1 4.623 1.9c1.5.752 2.838 1.515 4.01 2.289 1.174.773 2.153 1.507 2.936 2.206.715.638 1.139 1.19 1.265 1.663.129.475-.143.689-.81.644-.607-.04-1.238-.223-1.893-.552-.655-.33-1.552-.86-2.69-1.594-1.577-1.046-3-1.878-4.271-2.49a10.01 10.01 0 0 0-4.073-1c-1.34-.04-2.092.271-2.263.923-.17.653.196 1.45 1.11 2.367a9.048 9.048 0 0 0 1.894 1.457 13.23 13.23 0 0 0 2.24 1.024c.798.28 1.539.5 2.22.654.683.156 1.778.383 3.292.698 1.865.366 3.635.791 5.309 1.26a38.812 38.812 0 0 1 4.794 1.69 33.396 33.396 0 0 1 4.556 2.405 34.565 34.565 0 0 1 4.527 3.415c1.8 1.593 2.997 2.999 3.574 4.254.577 1.256.435 2.25-.43 3.027-.866.775-2.457 1.251-4.76 1.455zm-17.162 1.747c.03.74-.386 1.218-1.239 1.437-.815.209-1.764.073-2.842-.423-1.079-.494-2.16-1.38-3.25-2.647l-20.972-24.402c-1.09-1.268-1.674-2.248-1.759-2.929-.083-.681.239-1.052.971-1.115.756-.065 1.642.197 2.663.77 1.02.575 2.099 1.48 3.226 2.72l21.466 23.625c1.127 1.24 1.707 2.224 1.736 2.964zm-39.037 16.094c-.04 1.09-.465 1.887-1.266 2.388-.765.48-1.622.474-2.564-.034s-1.854-1.585-2.741-3.222l-17.082-31.494c-.888-1.636-1.342-2.957-1.369-3.945-.026-.988.289-1.61.955-1.87.685-.27 1.468-.085 2.35.532.882.619 1.791 1.72 2.719 3.31l17.665 30.32c.928 1.593 1.374 2.926 1.333 4.015zm-9.844 6.526c0 .01-.003.018-.003.027 7.15 5.263 6.918 11.393 6.918 11.393 5.922 12.193 4.18 25.082 4.18 25.082 1.045 14.98 4.18 13.934 4.18 13.934 6.62.349 11.148 0 11.148 0 10.8 1.742 19.508 18.115 19.508 18.115 10.8 27.869 4.18 48.77 4.18 48.77-1.045 9.406-6.967 22.295-6.967 22.295l-45.983 76.64-51.557-118.443 24.325-69.659a1.814 1.814 0 0 1-.642-.36c-.74-.63-1.436-2.048-2.095-4.236l-12.679-42.11c-.657-2.188-.983-3.977-.978-5.347.006-1.37.272-2.265.81-2.695.554-.443 1.174-.27 1.863.5.688.772 1.385 2.214 2.08 4.342 4.415 13.51 8.829 27.022 13.245 40.532.322.984.552 1.893.71 2.743l2.865-8.21-13.2-37.555c-.762-2.17-1.056-3.798-.883-4.864.174-1.068.633-1.857 1.39-2.372.412-.279.823-.556 1.238-.83.748-.495 1.359-.685 1.828-.583.468.102.952.517 1.448 1.24s1.225 1.952 2.19 3.673a579.77 579.77 0 0 0 13.58 22.876 854.698 854.698 0 0 0-7.429-26.708c-.566-1.896-.94-3.276-1.118-4.15-.178-.876-.154-1.557.073-2.048.227-.49.741-.943 1.55-1.354.45-.229.901-.453 1.353-.676.836-.411 1.662-.408 2.48-.012.816.398 1.689 1.495 2.606 3.3l16.629 32.731c.807 1.584 1.193 2.918 1.156 4.019zm-32.547-22.093l10.658 28.176c.89-1.563 1.856-2.86 2.861-3.938a627.691 627.691 0 0 1-13.519-24.238zm11.593 79.498l-8.36 20.901c-3.716 9.755 0 18.115 0 18.115 2.787 6.967 6.967 4.18 6.967 4.18 3.25-4.413 11.147-26.475 11.147-26.475 2.787-9.29 0-16.721 0-16.721-6.037-10.684-9.754 0-9.754 0zm1.105-87.703a842.62 842.62 0 0 1 8.372 27.877 15.74 15.74 0 0 1 4.633-.462 82871.95 82871.95 0 0 1-13.005-27.415zm12.83 171.31c3.02 11.38 9.754 4.18 9.754 4.18 3.947-5.807 8.36-13.935 8.36-13.935l4.18-9.754c3.02-6.734 0-16.721 0-16.721-7.43-12.308-12.54-2.787-12.54-2.787l-8.36 19.508c-4.645 10.683-1.394 19.508-1.394 19.508zm-27.845-112.805c.363 1.268.496 2.673.395 4.232-.1 1.559-.436 2.706-.999 3.425-.327.42-.65.623-.968.605-.318-.019-.628-.201-.932-.55-.304-.348-.697-.978-1.178-1.895-.48-.916-.897-1.736-1.254-2.453a459.546 459.546 0 0 1-2.787-5.987 161.293 161.293 0 0 0-7.375 10.26c.3 3.062.596 6.148.888 9.26.34 3.642.507 6.224.505 7.71 0 1.485-.264 2.676-.781 3.565-.44.756-.944.83-1.51.207-.565-.625-.994-1.712-1.294-3.247a33.003 33.003 0 0 1-.424-2.939c-.11-1.071-.243-2.594-.404-4.558-1.367-16.327-2.846-31.967-4.453-46.949-.14-1.289-.308-2.833-.506-4.626a75.398 75.398 0 0 1-.387-4.573c-.06-1.259-.02-2.372.122-3.339.142-.967.427-1.679.86-2.142.44-.47.888-.54 1.342-.227.454.315.899.867 1.33 1.651.433.786.856 1.67 1.27 2.654.414.983.959 2.302 1.64 3.942 4.632 10.836 9.496 21.107 14.6 30.85 1.178 2.212 1.951 3.906 2.3 5.124zm-19.496-31.23a1749.421 1749.421 0 0 1 3.25 28.159 150.567 150.567 0 0 1 5.272-7.043 549.321 549.321 0 0 1-8.522-21.116zm-1.396 46.95c.334 2.204.6 4.573.789 7.127.323 4.287.253 8.243-.187 11.907-.439 3.662-1.232 6.713-2.323 9.093-.985 2.15-1.89 3.216-2.735 3.121-.846-.092-1.695-1.443-2.559-4.088-.457-1.417-.918-3.216-1.383-5.394a99.962 99.962 0 0 1-1.176-6.608c-.339-2.356-.495-4.41-.464-6.143.029-1.732.209-2.971.546-3.728.326-.731.662-.719 1.005.02.341.74.742 2.182 1.2 4.32.49 2.292.904 4.067 1.24 5.334.335 1.268.71 2.164 1.127 2.686.416.524.858.275 1.333-.727 1.272-2.684 1.174-8.467-.393-17.413l-6.554-37.75c-.485-2.794-.736-5.066-.753-6.795-.017-1.73.167-2.87.564-3.438.405-.575.855-.347 1.352.665.498 1.013 1.005 2.857 1.513 5.549l6.51 34.475a232.266 232.266 0 0 1 1.348 7.788zm96.114 141.674l12.54-8.36s9.058-4.878 11.148-12.542c0 0 0-4.18-6.967-9.754 0 0-1.742-3.135 1.393-8.36l25.082-39.016 40.41-4.18s8.012-1.046 8.36 5.573v5.574s-1.393 5.225 5.574 5.574c0 0 7.316-.697 15.328-6.968l13.934-9.754s3.832-5.225 16.721-5.573l22.295-1.394-16.72 18.115s-13.238 16.373-22.296 20.901l-15.328 8.36s-11.495 8.362-9.754 13.935c0 0 2.439 4.529 1.394 8.36l-22.295 25.083-25.082 5.573s-5.225 2.787-6.967-1.393c0 0-1.742-4.877-11.148-2.787 0 0-5.922 1.045-18.114 11.148 0 0-6.62 5.225-15.328 6.967l-34.836 9.754 16.721-23.689s1.394-6.27 13.935-11.147z" clip-rule="evenodd" fill="#848484" fill-rule="evenodd"/></svg>