<svg xmlns="http://www.w3.org/2000/svg" width="534" height="800" viewBox="0 0 744.09449 1052.3622"><g transform="translate(267.838 407.938) scale(5.37468)"><path d="M1.5 35.5v-31h37v29.95c0 .579-.471 1.05-1.049 1.05z" fill="#fff"/><path d="M38 5v29.451c0 .303-.246.549-.549.549H2V5h36m1-1H1v32h36.451c.855 0 1.549-.694 1.549-1.549z" fill="#788b9c"/><path fill="#b5deff" d="M6 9h28v17.875H6z"/><path fill="#d9f6ff" d="M6 19h28v8H6z"/><path fill="#7aadf0" d="M6 27h28v4H6z"/><ellipse ry="3.1429999" rx="3.5" cy="18.143" cx="14.75" fill="#d9f6ff"/><ellipse ry="2.3570001" rx="2.625" cy="18.143" cx="11.25" fill="#d9f6ff"/><ellipse ry="3.1429999" rx="3.5" cy="19.714001" cx="20" fill="#d9f6ff"/><ellipse ry="3.1429999" rx="3.5" cy="18.143" cx="25.25" fill="#d9f6ff"/><ellipse ry="1.571" rx="1.75" cy="18.143" cx="32.25" fill="#d9f6ff"/><ellipse ry="1.571" rx="1.75" cy="18.143" cx="7.75" fill="#d9f6ff"/><ellipse ry="2.3570001" rx="2.625" cy="18.143" cx="28.75" fill="#d9f6ff"/><path fill="#4a6d9c" d="M34 27v-1.616L25.25 20 6 27"/><path fill="#5d84b8" d="M6 27v-4l8.75-4L27 27"/><circle r="8.5" cy="31" cx="31" fill="#f78f8f"/><path d="M31 23c4.411 0 8 3.589 8 8s-3.589 8-8 8-8-3.589-8-8 3.589-8 8-8m0-1c-4.971 0-9 4.029-9 9s4.029 9 9 9 9-4.029 9-9-4.029-9-9-9z" fill="#c74343"/><path fill="none" stroke="#fff" stroke-width="2" stroke-miterlimit="10" d="M27.5 34.5l7-7m-7 0l7 7"/></g></svg>