<svg xmlns="http://www.w3.org/2000/svg" width="534" height="800" viewBox="0 0 744.09449 1052.3622"><path d="M318.5990456 599.9905156V577.084144c0-20.82952724 12.27781518-39.89780902 31.279923-48.58695932l5.05976297-2.31608868-5.05976297-2.31608868c-19.00210782-8.6891503-31.279923-27.75743208-31.279923-48.58695932v-22.9063716h106.8964008v22.9063716c0 20.82952724-12.27781518 39.89780902-31.279923 48.58695932l-5.05976297 2.31608868 5.05976297 2.31608868c19.00210782 8.6891503 31.279923 27.75743208 31.279923 48.58695932v22.9063716z" fill="#f2faff"/><path d="M422.950294 454.9168288v20.3612192c0 19.8369178-11.69243013 37.99912533-29.793554 46.27596094l-10.12461624 4.62708706 10.12461625 4.62708706c18.1011239 8.2768356 29.793554 26.43904313 29.793554 46.27596094v20.3612192H321.144198V577.084144c0-19.8369178 11.69243013-37.99912533 29.793554-46.27596094l10.12461624-4.62708706-10.12461625-4.62708706c-18.1011239-8.2768356-29.793554-26.43904313-29.793554-46.27596094v-20.3612192h101.806096m5.0903048-5.0903048H316.0538932v25.451524c0 22.62640484 13.44858528 42.07136917 32.766292 50.903048-19.31770672 8.83167883-32.766292 28.27664316-32.766292 50.903048v25.451524h111.9867056v-25.451524c0-22.62640484-13.44858528-42.07136917-32.766292-50.903048 19.31770672-8.83167883 32.766292-28.27664316 32.766292-50.903048z" fill="#788b9c"/><path fill="#8bb7f0" d="M425.4954464 457.4619812H318.5990456v-10.1806096h-15.2709144v-15.2709144h137.4382296v15.2709144h-15.2709144"/><path d="M438.2212084 434.5556096v10.1806096H422.950294v10.1806096H321.144198v-10.1806096h-15.2709144v-10.1806096h132.3479248m5.0903048-5.0903048H300.7829788v20.3612192h15.2709144v10.1806096h111.9867056V449.826524h15.2709144z" fill="#4e7ab5"/><path d="M326.2345028 597.4453632h91.6254864c0-35.73903-45.8127432-45.8127432-45.8127432-45.8127432s-45.8127432 10.30786722-45.8127432 45.8127432z" fill="#ffc49c"/><path fill="#8bb7f0" d="M440.7663608 620.3517348H303.3281312v-15.2709144h15.2709144v-10.1806096h106.8964008v10.1806096h15.2709144"/><path d="M422.950294 597.4453632v10.1806096h15.2709144v10.1806096H305.8732836v-10.1806096h15.2709144v-10.1806096h101.806096m5.0903048-5.0903048H316.0538932v10.1806096h-15.2709144v20.3612192h142.5285344V602.535668h-15.2709144z" fill="#4e7ab5"/><path d="M331.05502145 495.6392672c7.50310927 15.0723925 23.0183583 25.451524 40.99222455 25.451524 17.97386625 0 33.49420558-10.3791315 40.99222455-25.451524z" fill="#ffc49c"/></svg>