<svg id="Layer_1" data-name="Layer 1" xmlns="http://www.w3.org/2000/svg" viewBox="0 0 1599.8 400"><defs><style>.cls-1,.cls-2{fill:#005999;}.cls-2,.cls-3,.cls-5{stroke:#07c;stroke-width:0.5px;}.cls-2,.cls-3{stroke-miterlimit:10;}.cls-3,.cls-5{fill:none;}.cls-4{fill:#07c;}.cls-5{stroke-linejoin:round;}</style></defs><title>splash-02</title><rect class="cls-1" width="1599.91" height="401.3"/><path class="cls-2" d="M527.28,228.66A24.35,24.35,0,0,1,502.93,253V228.66h24.35Z"/><path class="cls-2" d="M502.93,254.73H501.2v-27.8H529v1.73A26.11,26.11,0,0,1,502.93,254.73Zm1.73-24.35v20.83a22.66,22.66,0,0,0,20.84-20.83H504.66Z"/><path class="cls-2" d="M504.66,260.68h-1.73a32,32,0,1,1,32-32v1.73H504.66v30.27Z"/><path class="cls-2" d="M351.81,318.77l-8.57-8.57,1-1a21.18,21.18,0,0,0,6.25-15.09v-1.34h12.11v1.34a33.23,33.23,0,0,1-9.79,23.65Z"/><path class="cls-2" d="M319.7,275l-4.63-11.18,1.23-.51a32.94,32.94,0,0,1,12.79-2.56h1.34v12.11H329.1a21.22,21.22,0,0,0-8.15,1.62Z"/><path class="cls-2" d="M349.37,287.48h12.5a33.54,33.54,0,0,0-26.08-26.08v12.51A21.44,21.44,0,0,1,349.37,287.48Z"/><path class="cls-2" d="M338.7,313.23A21.33,21.33,0,0,1,315.17,278l-4.79-11.56a33.45,33.45,0,1,0,37.17,55.63Z"/><path class="cls-2" d="M1239,252.73a33.63,33.63,0,0,0-23,55.62l23-23V252.73Z"/><path class="cls-2" d="M1242.36,288.63l-23,23a33.63,33.63,0,0,0,55.62-23h-32.62Z"/><path class="cls-2" d="M1273.9,277.67a26.4,26.4,0,0,0-1-3l-9.27,9.27h4Z"/><path class="cls-2" d="M1249.06,283.94h4l16.32-16.32q-0.79-1.18-1.67-2.29Z"/><path class="cls-2" d="M1274.94,283.94a33.55,33.55,0,0,0-.44-3.52l-3.52,3.52h4Z"/><path class="cls-2" d="M1272,272.29q-0.62-1.34-1.34-2.62l-14.26,14.26h4Z"/><path class="cls-2" d="M1253,254.72q-1.47-.54-3-1l-6.27,6.27v4Z"/><path class="cls-2" d="M1262.34,260q-1.11-.88-2.29-1.67l-16.32,16.32v4Z"/><path class="cls-2" d="M1258,257q-1.27-.73-2.62-1.34l-11.64,11.64v4Z"/><path class="cls-2" d="M1266.13,263.52q-0.95-1-2-2L1243.74,282v2h2Z"/><path class="cls-2" d="M1243.74,256.69l3.52-3.52a33.59,33.59,0,0,0-3.52-.44v4Z"/><polyline class="cls-3" points="697.46 342.9 719.24 321.12 741.73 343.61 763.91 321.44"/><path class="cls-2" d="M697.46,349.48a6.58,6.58,0,1,1,6.54-6.62v0A6.59,6.59,0,0,1,697.46,349.48Z"/><path class="cls-2" d="M719.24,325.12a4,4,0,1,1,4-4A4,4,0,0,1,719.24,325.12Z"/><path class="cls-2" d="M741,349.48a6.58,6.58,0,1,1,6.58-6.58A6.58,6.58,0,0,1,741,349.48Z"/><path class="cls-2" d="M763.91,325.81a3.81,3.81,0,1,1,3.81-3.81h0A3.81,3.81,0,0,1,763.91,325.81Z"/><polyline class="cls-1" points="817.06 284.01 797.22 284.01 797.22 319.75 774.42 319.75"/><polygon class="cls-4" points="776.08 317.7 776.42 318.07 774.61 319.75 776.42 321.43 776.08 321.79 773.88 319.75 776.08 317.7"/><polyline class="cls-1" points="588.26 202.4 568.43 202.4 568.43 238.14 545.63 238.14"/><polyline class="cls-5" points="588.26 202.4 568.43 202.4 568.43 238.14 545.63 238.14"/><polygon class="cls-4" points="547.28 236.1 547.62 236.46 545.82 238.14 547.62 239.82 547.28 240.19 545.08 238.14 547.28 236.1"/><polyline class="cls-1" points="909.37 119 929.2 119 929.2 83.26 952 83.26"/><polygon class="cls-2" points="54.07 169.86 43.65 164.86 29.07 171.86 54.07 183.86 79.07 171.86 64.48 164.86 54.07 169.86"/><polygon class="cls-2" points="54.07 155.86 79.07 143.86 54.07 131.86 29.07 143.86 54.07 155.86"/><polygon class="cls-2" points="54.07 155.86 43.65 150.86 29.07 157.86 54.07 169.86 79.07 157.86 64.48 150.86 54.07 155.86"/><polygon class="cls-3" points="973.93 69.08 961.69 75.22 973.93 81.37 986.16 75.22 973.93 69.08"/><polygon class="cls-3" points="973.93 85.15 961.69 91.3 973.93 97.45 986.16 91.3 973.93 85.15"/><line class="cls-3" x1="986.16" y1="91.24" x2="986.16" y2="75.34"/><line class="cls-3" x1="961.69" y1="75.34" x2="961.69" y2="91.24"/><line class="cls-3" x1="973.93" y1="97.39" x2="973.93" y2="81.37"/><line class="cls-3" x1="1449.13" y1="99.77" x2="1449.13" y2="85.42"/><line class="cls-3" x1="1481.15" y1="49.77" x2="1449.13" y2="85.42"/><line class="cls-3" x1="1449.15" y1="99.77" x2="1456.91" y2="88.12"/><polygon class="cls-3" points="1427.15 77.77 1481.15 49.77 1473.15 93.77 1427.15 77.77"/><path class="cls-2" d="M1099.92,86.69L1088,74.77l11.91-11.92,11.91,11.92Zm-3.75-11.93,3.75,3.76,3.76-3.76L1099.92,71Z"/><path class="cls-2" d="M366.67,42L354.75,30l11.91-11.92L378.58,30Zm-3.76-12,3.75,3.76L370.43,30l-3.76-3.75Z"/><path class="cls-2" d="M655.5,330.6l-6.73-6.74,6.73-6.74,6.73,6.74Zm-2.12-6.74L655.5,326l2.12-2.12-2.12-2.12Z"/><path class="cls-2" d="M239.39,349.09l-11.91-11.93,11.91-11.92,11.91,11.92Zm-3.75-11.93,3.75,3.76,3.76-3.76-3.76-3.75Z"/><path class="cls-2" d="M1021,364.8a9.89,9.89,0,1,1,9.88-9.9v0A9.89,9.89,0,0,1,1021,364.8Zm0-15.86a6,6,0,1,0,6,6,6,6,0,0,0-6-6h0Z"/><path class="cls-2" d="M292.65,98.83a9.89,9.89,0,1,1,9.88-9.9v0A9.89,9.89,0,0,1,292.65,98.83Zm0-15.86a6,6,0,1,0,6,6,6,6,0,0,0-6-6v0Z"/><path class="cls-2" d="M741,370.82a6.11,6.11,0,1,1,6.1-6.12v0A6.11,6.11,0,0,1,741,370.82Zm0-9.79a3.69,3.69,0,1,0,3.7,3.69A3.69,3.69,0,0,0,741,361h0v0Z"/><path class="cls-2" d="M479.84,361a6.11,6.11,0,1,1,6.1-6.12v0A6.11,6.11,0,0,1,479.84,361Zm0-9.8a3.7,3.7,0,1,0,3.7,3.7,3.7,3.7,0,0,0-3.7-3.7v0Z"/><path class="cls-2" d="M1138.37,324.18a10.36,10.36,0,1,1,10.36-10.36h0A10.36,10.36,0,0,1,1138.37,324.18Zm0-16.62a6.27,6.27,0,1,0,6.27,6.27A6.27,6.27,0,0,0,1138.37,307.56Z"/><path class="cls-2" d="M111.12,46a6.11,6.11,0,1,1,6.1-6.12s0,0,0,0A6.11,6.11,0,0,1,111.12,46Zm0-9.79a3.69,3.69,0,1,0,3.69,3.7,3.69,3.69,0,0,0-3.69-3.7v0Z"/><path class="cls-2" d="M575.79,90.38a7.59,7.59,0,1,1,7.59-7.59,7.59,7.59,0,0,1-7.59,7.59h0Zm0-12.18a4.59,4.59,0,1,0,4.6,4.59A4.59,4.59,0,0,0,575.79,78.2Z"/><path class="cls-2" d="M312.19,244a9.89,9.89,0,1,1,9.88-9.9v0A9.89,9.89,0,0,1,312.19,244Zm0-15.86a6,6,0,1,0,6,6,6,6,0,0,0-6-6v0Z"/><path class="cls-2" d="M31.76,210h7.11v-7.41H44V210h7.15v4.82H44v7.51H38.87v-7.51H31.76V210Z"/><path class="cls-2" d="M1063.63,312.69h7.11v-7.42h5.13v7.42H1083v4.82h-7.15V325h-5.13v-7.51h-7.11v-4.82Z"/><path class="cls-2" d="M1423.88,368.59H1431v-7.42h5.1v7.42h7.15v4.82h-7.15v7.51H1431v-7.51h-7.11v-4.82h0Z"/><path class="cls-2" d="M487.25,47.37h7.11V40h5.13v7.42h7.15v4.82h-7.15V59.7h-5.13V52.19h-7.11V47.37Z"/><path class="cls-2" d="M1363.08,25.16h6.52v-6.8h4.71v6.8h6.56v4.43h-6.56v6.89h-4.71v-6.9h-6.52V25.16Z"/><path class="cls-2" d="M882.26,333.77l-9.75,16.94-9.79-16.94h19.54Zm-9.75,10.73,4.4-7.62h-8.8Z"/><path class="cls-2" d="M1508.79,225.77l12.62-21.93,12.67,21.93h-25.29Zm12.62-13.89-5.7,9.86h11.39Z"/><path class="cls-2" d="M910.93,37L899.65,56.63,888.32,37h22.61ZM899.65,49.44l5.1-8.82H894.56Z"/><path class="cls-3" d="M339,188.6a11.94,11.94,0,0,0-12,11.88h12V188.6Z"/><path class="cls-3" d="M327.07,200.49A11.94,11.94,0,0,0,339,212.43V200.49H327.07Z"/><path class="cls-3" d="M339,200.44a11.94,11.94,0,0,0,11.94-11.89H339v11.89Z"/><path class="cls-3" d="M227.13,30.55a11.94,11.94,0,0,1,11.94,11.89H227.13V30.55Z"/><path class="cls-3" d="M239,42.44a11.94,11.94,0,0,1-11.89,11.94V42.44H239Z"/><path class="cls-3" d="M227.13,42.44a11.94,11.94,0,0,1-11.94-11.89h11.94V42.44Z"/><path class="cls-3" d="M1193,306.08A11.94,11.94,0,0,1,1205,318v0h-12V306.08Z"/><path class="cls-3" d="M1204.94,318A11.94,11.94,0,0,1,1193,329.91V318h11.94Z"/><path class="cls-3" d="M1193.09,318a11.94,11.94,0,0,1-11.94-11.89h11.94V318Z"/><path class="cls-3" d="M702.25,111.51a11.94,11.94,0,0,1,11.94,11.89H702.25V111.51Z"/><path class="cls-3" d="M714.14,123.4a11.94,11.94,0,0,1-11.89,11.94V123.4h11.89Z"/><path class="cls-3" d="M702.3,123.4a11.94,11.94,0,0,1-11.94-11.89H702.3V123.4Z"/><path class="cls-3" d="M1266.27,214.81a11.94,11.94,0,0,1,11.94,11.89h-11.94V214.81Z"/><path class="cls-3" d="M1278.16,226.7a11.94,11.94,0,0,1-11.89,11.94V226.7h11.89Z"/><path class="cls-3" d="M1266.32,226.7a11.94,11.94,0,0,1-11.94-11.89h11.94V226.7Z"/><path class="cls-3" d="M467.72,148.3a11.94,11.94,0,0,0-11.94,11.89h11.94V148.3Z"/><path class="cls-3" d="M467.67,160.2a11.94,11.94,0,0,0,11.94-11.89H467.67V160.2Z"/><path class="cls-3" d="M1223.18,193.49a11.94,11.94,0,0,0-11.94,11.89h11.94V193.49Z"/><path class="cls-3" d="M1223.13,205.38a11.94,11.94,0,0,0,11.94-11.89h-11.94v11.89Z"/><path class="cls-3" d="M514.87,173.91a11.94,11.94,0,0,0-11.94,11.89h11.94V173.91Z"/><path class="cls-3" d="M514.82,185.8a11.94,11.94,0,0,0,11.94-11.89H514.82V185.8Z"/><path class="cls-3" d="M1099.92,227.21A11.94,11.94,0,0,0,1088,239.1h11.94V227.21h0Z"/><path class="cls-3" d="M1099.87,239.1a11.94,11.94,0,0,0,11.94-11.89h-11.94V239.1Z"/><path class="cls-3" d="M648.2,148.3a11.94,11.94,0,0,0-11.94,11.89H648.2V148.3Z"/><path class="cls-3" d="M648.15,160.2a11.94,11.94,0,0,0,11.94-11.89H648.15V160.2Z"/><path class="cls-3" d="M449.71,255.15A11.94,11.94,0,0,0,437.77,267h11.94V255.15Z"/><path class="cls-3" d="M426.21,227.21a11.94,11.94,0,0,0-11.94,11.89h11.94V227.21Z"/><path class="cls-3" d="M1150.15,194a11.94,11.94,0,0,0-11.94,11.89h11.94V194Z"/><path class="cls-3" d="M605.9,123.68A11.94,11.94,0,0,0,594,135.57h11.9V123.68Z"/><path class="cls-3" d="M557.45,174.42a11.94,11.94,0,0,0-11.94,11.89h11.94V174.42Z"/><path class="cls-3" d="M449.71,267a11.94,11.94,0,0,0,11.94-11.89H449.71V267Z"/><path class="cls-3" d="M548.21,160.2a11.94,11.94,0,0,0,11.94-11.89H548.21V160.2Z"/><path class="cls-3" d="M1150.24,239.1a11.94,11.94,0,0,0,11.94-11.89h-11.94V239.1Z"/><path class="cls-3" d="M1177.75,161.42a11.94,11.94,0,0,0-11.94,11.89h11.94V161.42Z"/><path class="cls-3" d="M1177.71,173.31a11.94,11.94,0,0,0,11.94-11.89h-11.94v11.89Z"/><path class="cls-3" d="M1123.59,280.52a11.94,11.94,0,0,0-11.94,11.89h11.94V280.52Z"/><path class="cls-3" d="M1123.59,292.41a11.94,11.94,0,0,0,11.94-11.89h-11.94v11.89Z"/><path class="cls-3" d="M418.38,211.87H441.6V200.49H429.66a11.6,11.6,0,0,0-8,3.36A11.87,11.87,0,0,0,418.38,211.87Z"/><path class="cls-3" d="M305.4,73.53h23.22V62.15H316.69a11.6,11.6,0,0,0-8,3.36A11.46,11.46,0,0,0,305.4,73.53Z"/><path class="cls-3" d="M454.47,292.41H477.7V281H465.76a11.6,11.6,0,0,0-8,3.36A11.46,11.46,0,0,0,454.47,292.41Z"/><path class="cls-3" d="M584.82,281h0a11.47,11.47,0,0,0-11.33,11.38h35.07A11.47,11.47,0,0,0,619.89,281H584.82Z"/><path class="cls-3" d="M395.66,255.15h0a11.47,11.47,0,0,0-11.33,11.38H419.4a11.47,11.47,0,0,0,11.33-11.38H395.66Z"/><path class="cls-3" d="M1118.2,239.1h23.22V227.73h-11.94a11.6,11.6,0,0,0-8,3.36A11.46,11.46,0,0,0,1118.2,239.1Z"/><path class="cls-3" d="M494.16,174.42H470.94V185.8h11.94a11.6,11.6,0,0,0,8-3.36A11.46,11.46,0,0,0,494.16,174.42Z"/><path class="cls-3" d="M522.42,148.3h-34.6v11.38h23.32a11.6,11.6,0,0,0,8-3.36A11.29,11.29,0,0,0,522.42,148.3Z"/><path class="cls-3" d="M410.73,200.49h-34.6v11.38h23.32a11.6,11.6,0,0,0,8-3.36A11.37,11.37,0,0,0,410.73,200.49Z"/><path class="cls-3" d="M1391.6,303.61H1357V315h23.32A11.39,11.39,0,0,0,1391.6,303.61Z"/><path class="cls-3" d="M279,62.29H244.4V73.67h23.3a11.6,11.6,0,0,0,8-3.36A11.87,11.87,0,0,0,279,62.29Z"/><path class="cls-3" d="M1180.6,255.15H1146v11.38h23.32a11.6,11.6,0,0,0,8-3.36A11.29,11.29,0,0,0,1180.6,255.15Z"/><path class="cls-3" d="M1206,194h-46v11.38h34.7a11.6,11.6,0,0,0,8-3.36A11.31,11.31,0,0,0,1206,194Z"/><path class="cls-3" d="M1040.32,161.42h-46V172.8H1029a11.6,11.6,0,0,0,8-3.36A11.23,11.23,0,0,0,1040.32,161.42Z"/><path class="cls-3" d="M580.44,255.15h-46v11.38h34.7a11.6,11.6,0,0,0,8-3.36A11.15,11.15,0,0,0,580.44,255.15Z"/><path class="cls-3" d="M457.79,227.73H434.56V239.1H446.5a11.6,11.6,0,0,0,8-3.36A11.37,11.37,0,0,0,457.79,227.73Z"/><path class="cls-3" d="M353.74,239.1h46V227.73H365a11.6,11.6,0,0,0-8,3.36A11.46,11.46,0,0,0,353.74,239.1Z"/><path class="cls-3" d="M217.09,314.38h68.79V303H228.43A11.47,11.47,0,0,0,217.09,314.38Z"/><path class="cls-3" d="M374.73,292.18h68.79V280.8H386.06a11.6,11.6,0,0,0-8,3.36A11.34,11.34,0,0,0,374.73,292.18Z"/><path class="cls-3" d="M241.4,212.38h68.79V201h-57.5a11.6,11.6,0,0,0-8,3.36A11.29,11.29,0,0,0,241.4,212.38Z"/><path class="cls-3" d="M668.72,159.73h23.22V148.35H680a11.6,11.6,0,0,0-8,3.36A11.29,11.29,0,0,0,668.72,159.73Z"/><path class="cls-3" d="M749.35,148.3h-46v11.38H738A11.47,11.47,0,0,0,749.35,148.3Z"/><path class="cls-3" d="M1248.69,227.21H1179.9v11.38h57.5A11.39,11.39,0,0,0,1248.69,227.21Z"/><path class="cls-3" d="M557.45,281H488.66v11.38h57.5a11.6,11.6,0,0,0,8-3.36A11.37,11.37,0,0,0,557.45,281Z"/><path class="cls-3" d="M1283.25,238.59h23.22V227.21h-11.94A11.39,11.39,0,0,0,1283.25,238.59Z"/><path class="cls-3" d="M1386.22,227.21h-68.79v11.38h57.5a11.6,11.6,0,0,0,8-3.36A11.29,11.29,0,0,0,1386.22,227.21Z"/><path class="cls-3" d="M1097.4,161.14h0a11.47,11.47,0,0,0-11.33,11.38H1144a11.47,11.47,0,0,0,11.33-11.38H1097.4Z"/><path class="cls-3" d="M522.19,124.19h0a11.47,11.47,0,0,0-11.33,11.38h58a11.47,11.47,0,0,0,11.33-11.38h-58Z"/><path class="cls-3" d="M160.4,328.65h0A11.47,11.47,0,0,0,149.07,340H207a11.47,11.47,0,0,0,11.33-11.38H160.4v0Z"/><circle class="cls-3" cx="455.78" cy="206.18" r="5.69"/><circle class="cls-3" cx="292.64" cy="68.12" r="5.69"/><path class="cls-3" d="M1171.11,294.46h23.22V283.08H1182.4a11.6,11.6,0,0,0-8,3.36A11.87,11.87,0,0,0,1171.11,294.46Z"/><circle class="cls-3" cx="1153.9" cy="289" r="5.69"/><circle class="cls-3" cx="1195.57" cy="261.12" r="5.69"/><circle class="cls-3" cx="616.67" cy="153.99" r="5.69"/><circle class="cls-3" cx="600.21" cy="153.99" r="5.69"/><circle class="cls-3" cx="1071.05" cy="167.11" r="5.69"/><circle class="cls-3" cx="1118.2" cy="199.69" r="5.69"/><circle class="cls-3" cx="594.99" cy="260.84" r="5.69"/><circle class="cls-3" cx="611.59" cy="260.84" r="5.69"/><circle class="cls-3" cx="1114.98" cy="260.84" r="5.69"/><circle class="cls-3" cx="391.8" cy="180.11" r="5.69"/><circle class="cls-3" cx="1211.7" cy="167.11" r="5.69"/><circle class="cls-3" cx="1131.58" cy="260.84" r="5.69"/><path class="cls-3" d="M474.9,123.91H440.3v11.38h23.32a11.6,11.6,0,0,0,8-3.36A11.29,11.29,0,0,0,474.9,123.91Z"/><path class="cls-3" d="M650.81,123.91h-34.6v11.38h23.32a11.6,11.6,0,0,0,8-3.36A11.29,11.29,0,0,0,650.81,123.91Z"/><circle class="cls-3" cx="489.92" cy="129.88" r="5.69"/><circle class="cls-3" cx="409.33" cy="129.6" r="5.69"/><circle class="cls-3" cx="425.93" cy="129.6" r="5.69"/><circle class="cls-3" cx="253.47" cy="286.49" r="5.69"/><circle class="cls-3" cx="270.08" cy="286.49" r="5.69"/><circle class="cls-3" cx="535.15" cy="153.99" r="5.69"/><circle class="cls-3" cx="338.96" cy="233.41" r="5.69"/><path class="cls-3" d="M255.71,43.63h0A11.47,11.47,0,0,0,244.38,55h35.07a11.47,11.47,0,0,0,11.33-11.38H255.71Z"/><path class="cls-3" d="M1293.17,35.64a11.94,11.94,0,0,0-11.94,11.89h11.94V35.64Z"/><path class="cls-3" d="M1281.28,47.53a11.94,11.94,0,0,0,11.89,11.94V47.53h-11.89Z"/><path class="cls-3" d="M1293.17,47.49a11.94,11.94,0,0,0,11.94-11.89h-11.94V47.49Z"/><path class="cls-3" d="M116.91,69.6a11.94,11.94,0,0,1,11.94,11.89H116.91V69.6Z"/><path class="cls-3" d="M128.8,81.49a11.94,11.94,0,0,1-11.89,11.94V81.49H128.8Z"/><path class="cls-3" d="M117,81.49a11.94,11.94,0,0,1-12-11.88h12V81.49Z"/><path class="cls-3" d="M1472.67,363.54a11.94,11.94,0,0,0-11.94,11.89h11.94V363.54Z"/><path class="cls-3" d="M1472.63,375.43a11.94,11.94,0,0,0,11.94-11.89h-11.94v11.89Z"/><path class="cls-3" d="M1469.09,21a11.94,11.94,0,0,0-11.94,11.89h11.94V21Z"/><path class="cls-3" d="M1469,32.84A11.94,11.94,0,0,0,1481,21h-12V32.84Z"/><path class="cls-3" d="M62.86,106.4a11.94,11.94,0,0,0-11.94,11.89H62.86V106.4Z"/><path class="cls-3" d="M62.81,118.29A11.94,11.94,0,0,0,74.75,106.4H62.81v11.89h0Z"/><path class="cls-3" d="M1403.93,102.19A11.94,11.94,0,0,0,1392,114.08h11.94V102.19h0Z"/><path class="cls-3" d="M1380.43,74.25a11.94,11.94,0,0,0-11.94,11.89h11.94V74.25Z"/><path class="cls-3" d="M1511.66,21.46a11.94,11.94,0,0,0-11.94,11.89h11.94V21.46Z"/><path class="cls-3" d="M1403.93,114.08a11.94,11.94,0,0,0,11.94-11.89h-11.94v11.89Z"/><path class="cls-3" d="M807.35,75.55a11.94,11.94,0,0,0,11.94-11.89H807.35V75.55Z"/><path class="cls-3" d="M1372.6,58.91h23.22V47.53h-11.94a11.6,11.6,0,0,0-8,3.36A11.87,11.87,0,0,0,1372.6,58.91Z"/><path class="cls-3" d="M1325.6,315.39h23.22V304h-11.93a11.6,11.6,0,0,0-8,3.36A11.46,11.46,0,0,0,1325.6,315.39Z"/><path class="cls-3" d="M1408.69,139.45h23.22V128.07H1420a11.6,11.6,0,0,0-8,3.36A11.46,11.46,0,0,0,1408.69,139.45Z"/><path class="cls-3" d="M1539,128.07h0a11.47,11.47,0,0,0-11.33,11.38h35.07a11.47,11.47,0,0,0,11.33-11.38H1539Z"/><path class="cls-3" d="M1349.88,102.19h0a11.47,11.47,0,0,0-11.33,11.38h35.07a11.47,11.47,0,0,0,11.33-11.38h-35.07Z"/><path class="cls-3" d="M1448.38,21.46h-23.22V32.84h11.94a11.6,11.6,0,0,0,8-3.36A11.46,11.46,0,0,0,1448.38,21.46Z"/><path class="cls-3" d="M1527.38,363.54h-34.6v11.38h23.31a11.6,11.6,0,0,0,8-3.36A11.29,11.29,0,0,0,1527.38,363.54Z"/><path class="cls-3" d="M1364.95,47.53h-34.6V58.91h23.32a11.6,11.6,0,0,0,8-3.36A11.37,11.37,0,0,0,1364.95,47.53Z"/><path class="cls-3" d="M1534.66,102.19h-46v11.38h34.7a11.6,11.6,0,0,0,8-3.36A11.15,11.15,0,0,0,1534.66,102.19Z"/><path class="cls-3" d="M1412,74.77h-23.22V86.15h11.94a11.6,11.6,0,0,0,8-3.36A11.37,11.37,0,0,0,1412,74.77Z"/><path class="cls-3" d="M1308,86.15h46V74.77h-34.74a11.6,11.6,0,0,0-8,3.36A11.46,11.46,0,0,0,1308,86.15Z"/><path class="cls-3" d="M1328.94,139.22h68.79V127.84h-57.46a11.6,11.6,0,0,0-8,3.36A11.34,11.34,0,0,0,1328.94,139.22Z"/><path class="cls-3" d="M1195.61,59.42h68.79V48h-57.5a11.6,11.6,0,0,0-8,3.36A11.29,11.29,0,0,0,1195.61,59.42Z"/><path class="cls-3" d="M83.38,117.82H106.6V106.44H94.66a11.6,11.6,0,0,0-8,3.36A11.29,11.29,0,0,0,83.38,117.82Z"/><path class="cls-3" d="M164,106.4H118v11.38h34.7A11.47,11.47,0,0,0,164,106.4Z"/><path class="cls-3" d="M1326,375h23.22V363.58h-11.94a11.6,11.6,0,0,0-8,3.36A11.29,11.29,0,0,0,1326,375Z"/><path class="cls-3" d="M1406.59,363.54h-46v11.38h34.7a11.6,11.6,0,0,0,8-3.36A11.15,11.15,0,0,0,1406.59,363.54Z"/><path class="cls-3" d="M1511.66,128.07h-68.79v11.38h57.5a11.6,11.6,0,0,0,8-3.36A11.37,11.37,0,0,0,1511.66,128.07Z"/><path class="cls-3" d="M1537.14,339.43h0a11.47,11.47,0,0,0-11.33,11.38h58a11.47,11.47,0,0,0,11.28-11.38h-57.95Z"/><circle class="cls-3" cx="1410" cy="53.22" r="5.69"/><circle class="cls-3" cx="1308.35" cy="309.98" r="5.69"/><circle class="cls-3" cx="31.33" cy="112.09" r="5.69"/><circle class="cls-3" cx="14.87" cy="112.09" r="5.69"/><circle class="cls-3" cx="1549.21" cy="107.88" r="5.69"/><circle class="cls-3" cx="1346.01" cy="27.15" r="5.69"/><path class="cls-3" d="M1489.85,339.15h-34.6v11.38h23.32a11.6,11.6,0,0,0,8-3.36A11.29,11.29,0,0,0,1489.85,339.15Z"/><path class="cls-3" d="M65.47,82H30.87V93.38H54.18a11.6,11.6,0,0,0,8-3.36A11.29,11.29,0,0,0,65.47,82Z"/><circle class="cls-3" cx="1504.87" cy="345.12" r="5.69"/><circle class="cls-3" cx="1424.28" cy="344.84" r="5.69"/><circle class="cls-3" cx="1440.89" cy="344.84" r="5.69"/><circle class="cls-3" cx="1093.69" cy="133.53" r="5.69"/><circle class="cls-3" cx="1110.29" cy="133.53" r="5.69"/><circle class="cls-3" cx="794.29" cy="69.34" r="5.69"/><circle class="cls-3" cx="1293.17" cy="80.46" r="5.69"/><path class="cls-3" d="M1276.8,363.54h0a11.47,11.47,0,0,0-11.33,11.38h35.07a11.47,11.47,0,0,0,11.33-11.38H1276.8Z"/><path class="cls-2" d="M527.28,228.66A24.35,24.35,0,0,1,502.93,253V228.66h24.35Z"/><path class="cls-2" d="M502.93,254.73H501.2v-27.8H529v1.73A26.11,26.11,0,0,1,502.93,254.73Zm1.73-24.35v20.83a22.66,22.66,0,0,0,20.84-20.83H504.66Z"/><path class="cls-2" d="M504.66,260.68h-1.73a32,32,0,1,1,32-32v1.73H504.66v30.27Z"/><path class="cls-2" d="M351.81,318.77l-8.57-8.57,1-1a21.18,21.18,0,0,0,6.25-15.09v-1.34h12.11v1.34a33.23,33.23,0,0,1-9.79,23.65Z"/><path class="cls-2" d="M319.7,275l-4.63-11.18,1.23-.51a32.94,32.94,0,0,1,12.79-2.56h1.34v12.11H329.1a21.22,21.22,0,0,0-8.15,1.62Z"/><path class="cls-2" d="M349.37,287.48h12.5a33.54,33.54,0,0,0-26.08-26.08v12.51A21.44,21.44,0,0,1,349.37,287.48Z"/><path class="cls-2" d="M338.7,313.23A21.33,21.33,0,0,1,315.17,278l-4.79-11.56a33.45,33.45,0,1,0,37.17,55.63Z"/><path class="cls-2" d="M1239,252.73a33.63,33.63,0,0,0-23,55.62l23-23V252.73Z"/><path class="cls-2" d="M1242.36,288.63l-23,23a33.63,33.63,0,0,0,55.62-23h-32.62Z"/><path class="cls-2" d="M1273.9,277.67a26.4,26.4,0,0,0-1-3l-9.27,9.27h4Z"/><path class="cls-2" d="M1249.06,283.94h4l16.32-16.32q-0.79-1.18-1.67-2.29Z"/><path class="cls-2" d="M1274.94,283.94a33.55,33.55,0,0,0-.44-3.52l-3.52,3.52h4Z"/><path class="cls-2" d="M1272,272.29q-0.62-1.34-1.34-2.62l-14.26,14.26h4Z"/><path class="cls-2" d="M1253,254.72q-1.47-.54-3-1l-6.27,6.27v4Z"/><path class="cls-2" d="M1262.34,260q-1.11-.88-2.29-1.67l-16.32,16.32v4Z"/><path class="cls-2" d="M1258,257q-1.27-.73-2.62-1.34l-11.64,11.64v4Z"/><path class="cls-2" d="M1266.13,263.52q-0.95-1-2-2L1243.74,282v2h2Z"/><path class="cls-2" d="M1243.74,256.69l3.52-3.52a33.59,33.59,0,0,0-3.52-.44v4Z"/><polyline class="cls-3" points="697.46 342.9 719.24 321.12 741.73 343.61 763.91 321.44"/><path class="cls-2" d="M697.46,349.48a6.58,6.58,0,1,1,6.54-6.62v0A6.59,6.59,0,0,1,697.46,349.48Z"/><path class="cls-2" d="M719.24,325.12a4,4,0,1,1,4-4A4,4,0,0,1,719.24,325.12Z"/><path class="cls-2" d="M741,349.48a6.58,6.58,0,1,1,6.58-6.58A6.58,6.58,0,0,1,741,349.48Z"/><path class="cls-2" d="M763.91,325.81a3.81,3.81,0,1,1,3.81-3.81h0A3.81,3.81,0,0,1,763.91,325.81Z"/><polyline class="cls-1" points="817.06 284.01 797.22 284.01 797.22 319.75 774.42 319.75"/><polygon class="cls-4" points="776.08 317.7 776.42 318.07 774.61 319.75 776.42 321.43 776.08 321.79 773.88 319.75 776.08 317.7"/><polyline class="cls-1" points="588.26 202.4 568.43 202.4 568.43 238.14 545.63 238.14"/><polyline class="cls-5" points="588.26 202.4 568.43 202.4 568.43 238.14 545.63 238.14"/><polygon class="cls-4" points="547.28 236.1 547.62 236.46 545.82 238.14 547.62 239.82 547.28 240.19 545.08 238.14 547.28 236.1"/><polyline class="cls-1" points="909.37 119 929.2 119 929.2 83.26 952 83.26"/><polygon class="cls-2" points="54.07 169.86 43.65 164.86 29.07 171.86 54.07 183.86 79.07 171.86 64.48 164.86 54.07 169.86"/><polygon class="cls-2" points="54.07 155.86 79.07 143.86 54.07 131.86 29.07 143.86 54.07 155.86"/><polygon class="cls-2" points="54.07 155.86 43.65 150.86 29.07 157.86 54.07 169.86 79.07 157.86 64.48 150.86 54.07 155.86"/><polygon class="cls-3" points="973.93 69.08 961.69 75.22 973.93 81.37 986.16 75.22 973.93 69.08"/><polygon class="cls-3" points="973.93 85.15 961.69 91.3 973.93 97.45 986.16 91.3 973.93 85.15"/><line class="cls-3" x1="986.16" y1="91.24" x2="986.16" y2="75.34"/><line class="cls-3" x1="961.69" y1="75.34" x2="961.69" y2="91.24"/><line class="cls-3" x1="973.93" y1="97.39" x2="973.93" y2="81.37"/><line class="cls-3" x1="1449.13" y1="99.77" x2="1449.13" y2="85.42"/><line class="cls-3" x1="1481.15" y1="49.77" x2="1449.13" y2="85.42"/><line class="cls-3" x1="1449.15" y1="99.77" x2="1456.91" y2="88.12"/><polygon class="cls-3" points="1427.15 77.77 1481.15 49.77 1473.15 93.77 1427.15 77.77"/><path class="cls-2" d="M1099.92,86.69L1088,74.77l11.91-11.92,11.91,11.92Zm-3.75-11.93,3.75,3.76,3.76-3.76L1099.92,71Z"/><path class="cls-2" d="M366.67,42L354.75,30l11.91-11.92L378.58,30Zm-3.76-12,3.75,3.76L370.43,30l-3.76-3.75Z"/><path class="cls-2" d="M655.5,330.6l-6.73-6.74,6.73-6.74,6.73,6.74Zm-2.12-6.74L655.5,326l2.12-2.12-2.12-2.12Z"/><path class="cls-2" d="M239.39,349.09l-11.91-11.93,11.91-11.92,11.91,11.92Zm-3.75-11.93,3.75,3.76,3.76-3.76-3.76-3.75Z"/><path class="cls-2" d="M1021,364.8a9.89,9.89,0,1,1,9.88-9.9v0A9.89,9.89,0,0,1,1021,364.8Zm0-15.86a6,6,0,1,0,6,6,6,6,0,0,0-6-6h0Z"/><path class="cls-2" d="M292.65,98.83a9.89,9.89,0,1,1,9.88-9.9v0A9.89,9.89,0,0,1,292.65,98.83Zm0-15.86a6,6,0,1,0,6,6,6,6,0,0,0-6-6v0Z"/><path class="cls-2" d="M741,370.82a6.11,6.11,0,1,1,6.1-6.12v0A6.11,6.11,0,0,1,741,370.82Zm0-9.79a3.69,3.69,0,1,0,3.7,3.69A3.69,3.69,0,0,0,741,361h0v0Z"/><path class="cls-2" d="M479.84,361a6.11,6.11,0,1,1,6.1-6.12v0A6.11,6.11,0,0,1,479.84,361Zm0-9.8a3.7,3.7,0,1,0,3.7,3.7,3.7,3.7,0,0,0-3.7-3.7v0Z"/><path class="cls-2" d="M1138.37,324.18a10.36,10.36,0,1,1,10.36-10.36h0A10.36,10.36,0,0,1,1138.37,324.18Zm0-16.62a6.27,6.27,0,1,0,6.27,6.27A6.27,6.27,0,0,0,1138.37,307.56Z"/><path class="cls-2" d="M111.12,46a6.11,6.11,0,1,1,6.1-6.12s0,0,0,0A6.11,6.11,0,0,1,111.12,46Zm0-9.79a3.69,3.69,0,1,0,3.69,3.7,3.69,3.69,0,0,0-3.69-3.7v0Z"/><path class="cls-2" d="M575.79,90.38a7.59,7.59,0,1,1,7.59-7.59,7.59,7.59,0,0,1-7.59,7.59h0Zm0-12.18a4.59,4.59,0,1,0,4.6,4.59A4.59,4.59,0,0,0,575.79,78.2Z"/><path class="cls-2" d="M312.19,244a9.89,9.89,0,1,1,9.88-9.9v0A9.89,9.89,0,0,1,312.19,244Zm0-15.86a6,6,0,1,0,6,6,6,6,0,0,0-6-6v0Z"/><path class="cls-2" d="M31.76,210h7.11v-7.41H44V210h7.15v4.82H44v7.51H38.87v-7.51H31.76V210Z"/><path class="cls-2" d="M1063.63,312.69h7.11v-7.42h5.13v7.42H1083v4.82h-7.15V325h-5.13v-7.51h-7.11v-4.82Z"/><path class="cls-2" d="M1423.88,368.59H1431v-7.42h5.1v7.42h7.15v4.82h-7.15v7.51H1431v-7.51h-7.11v-4.82h0Z"/><path class="cls-2" d="M487.25,47.37h7.11V40h5.13v7.42h7.15v4.82h-7.15V59.7h-5.13V52.19h-7.11V47.37Z"/><path class="cls-2" d="M1363.08,25.16h6.52v-6.8h4.71v6.8h6.56v4.43h-6.56v6.89h-4.71v-6.9h-6.52V25.16Z"/><path class="cls-2" d="M882.26,333.77l-9.75,16.94-9.79-16.94h19.54Zm-9.75,10.73,4.4-7.62h-8.8Z"/><path class="cls-2" d="M1508.79,225.77l12.62-21.93,12.67,21.93h-25.29Zm12.62-13.89-5.7,9.86h11.39Z"/><path class="cls-2" d="M910.93,37L899.65,56.63,888.32,37h22.61ZM899.65,49.44l5.1-8.82H894.56Z"/><path class="cls-3" d="M339,188.6a11.94,11.94,0,0,0-12,11.88h12V188.6Z"/><path class="cls-3" d="M327.07,200.49A11.94,11.94,0,0,0,339,212.43V200.49H327.07Z"/><path class="cls-3" d="M339,200.44a11.94,11.94,0,0,0,11.94-11.89H339v11.89Z"/><path class="cls-3" d="M227.13,30.55a11.94,11.94,0,0,1,11.94,11.89H227.13V30.55Z"/><path class="cls-3" d="M239,42.44a11.94,11.94,0,0,1-11.89,11.94V42.44H239Z"/><path class="cls-3" d="M227.13,42.44a11.94,11.94,0,0,1-11.94-11.89h11.94V42.44Z"/><path class="cls-3" d="M1193,306.08A11.94,11.94,0,0,1,1205,318v0h-12V306.08Z"/><path class="cls-3" d="M1204.94,318A11.94,11.94,0,0,1,1193,329.91V318h11.94Z"/><path class="cls-3" d="M1193.09,318a11.94,11.94,0,0,1-11.94-11.89h11.94V318Z"/><path class="cls-3" d="M702.25,111.51a11.94,11.94,0,0,1,11.94,11.89H702.25V111.51Z"/><path class="cls-3" d="M714.14,123.4a11.94,11.94,0,0,1-11.89,11.94V123.4h11.89Z"/><path class="cls-3" d="M702.3,123.4a11.94,11.94,0,0,1-11.94-11.89H702.3V123.4Z"/><path class="cls-3" d="M1266.27,214.81a11.94,11.94,0,0,1,11.94,11.89h-11.94V214.81Z"/><path class="cls-3" d="M1278.16,226.7a11.94,11.94,0,0,1-11.89,11.94V226.7h11.89Z"/><path class="cls-3" d="M1266.32,226.7a11.94,11.94,0,0,1-11.94-11.89h11.94V226.7Z"/><path class="cls-3" d="M467.72,148.3a11.94,11.94,0,0,0-11.94,11.89h11.94V148.3Z"/><path class="cls-3" d="M467.67,160.2a11.94,11.94,0,0,0,11.94-11.89H467.67V160.2Z"/><path class="cls-3" d="M1223.18,193.49a11.94,11.94,0,0,0-11.94,11.89h11.94V193.49Z"/><path class="cls-3" d="M1223.13,205.38a11.94,11.94,0,0,0,11.94-11.89h-11.94v11.89Z"/><path class="cls-3" d="M514.87,173.91a11.94,11.94,0,0,0-11.94,11.89h11.94V173.91Z"/><path class="cls-3" d="M514.82,185.8a11.94,11.94,0,0,0,11.94-11.89H514.82V185.8Z"/><path class="cls-3" d="M1099.92,227.21A11.94,11.94,0,0,0,1088,239.1h11.94V227.21h0Z"/><path class="cls-3" d="M1099.87,239.1a11.94,11.94,0,0,0,11.94-11.89h-11.94V239.1Z"/><path class="cls-3" d="M648.2,148.3a11.94,11.94,0,0,0-11.94,11.89H648.2V148.3Z"/><path class="cls-3" d="M648.15,160.2a11.94,11.94,0,0,0,11.94-11.89H648.15V160.2Z"/><path class="cls-3" d="M449.71,255.15A11.94,11.94,0,0,0,437.77,267h11.94V255.15Z"/><path class="cls-3" d="M426.21,227.21a11.94,11.94,0,0,0-11.94,11.89h11.94V227.21Z"/><path class="cls-3" d="M1150.15,194a11.94,11.94,0,0,0-11.94,11.89h11.94V194Z"/><path class="cls-3" d="M605.9,123.68A11.94,11.94,0,0,0,594,135.57h11.9V123.68Z"/><path class="cls-3" d="M557.45,174.42a11.94,11.94,0,0,0-11.94,11.89h11.94V174.42Z"/><path class="cls-3" d="M449.71,267a11.94,11.94,0,0,0,11.94-11.89H449.71V267Z"/><path class="cls-3" d="M548.21,160.2a11.94,11.94,0,0,0,11.94-11.89H548.21V160.2Z"/><path class="cls-3" d="M1150.24,239.1a11.94,11.94,0,0,0,11.94-11.89h-11.94V239.1Z"/><path class="cls-3" d="M1177.75,161.42a11.94,11.94,0,0,0-11.94,11.89h11.94V161.42Z"/><path class="cls-3" d="M1177.71,173.31a11.94,11.94,0,0,0,11.94-11.89h-11.94v11.89Z"/><path class="cls-3" d="M1123.59,280.52a11.94,11.94,0,0,0-11.94,11.89h11.94V280.52Z"/><path class="cls-3" d="M1123.59,292.41a11.94,11.94,0,0,0,11.94-11.89h-11.94v11.89Z"/><path class="cls-3" d="M418.38,211.87H441.6V200.49H429.66a11.6,11.6,0,0,0-8,3.36A11.87,11.87,0,0,0,418.38,211.87Z"/><path class="cls-3" d="M305.4,73.53h23.22V62.15H316.69a11.6,11.6,0,0,0-8,3.36A11.46,11.46,0,0,0,305.4,73.53Z"/><path class="cls-3" d="M454.47,292.41H477.7V281H465.76a11.6,11.6,0,0,0-8,3.36A11.46,11.46,0,0,0,454.47,292.41Z"/><path class="cls-3" d="M584.82,281h0a11.47,11.47,0,0,0-11.33,11.38h35.07A11.47,11.47,0,0,0,619.89,281H584.82Z"/><path class="cls-3" d="M395.66,255.15h0a11.47,11.47,0,0,0-11.33,11.38H419.4a11.47,11.47,0,0,0,11.33-11.38H395.66Z"/><path class="cls-3" d="M1118.2,239.1h23.22V227.73h-11.94a11.6,11.6,0,0,0-8,3.36A11.46,11.46,0,0,0,1118.2,239.1Z"/><path class="cls-3" d="M494.16,174.42H470.94V185.8h11.94a11.6,11.6,0,0,0,8-3.36A11.46,11.46,0,0,0,494.16,174.42Z"/><path class="cls-3" d="M522.42,148.3h-34.6v11.38h23.32a11.6,11.6,0,0,0,8-3.36A11.29,11.29,0,0,0,522.42,148.3Z"/><path class="cls-3" d="M410.73,200.49h-34.6v11.38h23.32a11.6,11.6,0,0,0,8-3.36A11.37,11.37,0,0,0,410.73,200.49Z"/><path class="cls-3" d="M1391.6,303.61H1357V315h23.32A11.39,11.39,0,0,0,1391.6,303.61Z"/><path class="cls-3" d="M279,62.29H244.4V73.67h23.3a11.6,11.6,0,0,0,8-3.36A11.87,11.87,0,0,0,279,62.29Z"/><path class="cls-3" d="M1180.6,255.15H1146v11.38h23.32a11.6,11.6,0,0,0,8-3.36A11.29,11.29,0,0,0,1180.6,255.15Z"/><path class="cls-3" d="M1206,194h-46v11.38h34.7a11.6,11.6,0,0,0,8-3.36A11.31,11.31,0,0,0,1206,194Z"/><path class="cls-3" d="M1040.32,161.42h-46V172.8H1029a11.6,11.6,0,0,0,8-3.36A11.23,11.23,0,0,0,1040.32,161.42Z"/><path class="cls-3" d="M580.44,255.15h-46v11.38h34.7a11.6,11.6,0,0,0,8-3.36A11.15,11.15,0,0,0,580.44,255.15Z"/><path class="cls-3" d="M457.79,227.73H434.56V239.1H446.5a11.6,11.6,0,0,0,8-3.36A11.37,11.37,0,0,0,457.79,227.73Z"/><path class="cls-3" d="M353.74,239.1h46V227.73H365a11.6,11.6,0,0,0-8,3.36A11.46,11.46,0,0,0,353.74,239.1Z"/><path class="cls-3" d="M217.09,314.38h68.79V303H228.43A11.47,11.47,0,0,0,217.09,314.38Z"/><path class="cls-3" d="M374.73,292.18h68.79V280.8H386.06a11.6,11.6,0,0,0-8,3.36A11.34,11.34,0,0,0,374.73,292.18Z"/><path class="cls-3" d="M241.4,212.38h68.79V201h-57.5a11.6,11.6,0,0,0-8,3.36A11.29,11.29,0,0,0,241.4,212.38Z"/><path class="cls-3" d="M668.72,159.73h23.22V148.35H680a11.6,11.6,0,0,0-8,3.36A11.29,11.29,0,0,0,668.72,159.73Z"/><path class="cls-3" d="M749.35,148.3h-46v11.38H738A11.47,11.47,0,0,0,749.35,148.3Z"/><path class="cls-3" d="M1248.69,227.21H1179.9v11.38h57.5A11.39,11.39,0,0,0,1248.69,227.21Z"/><path class="cls-3" d="M557.45,281H488.66v11.38h57.5a11.6,11.6,0,0,0,8-3.36A11.37,11.37,0,0,0,557.45,281Z"/><path class="cls-3" d="M1283.25,238.59h23.22V227.21h-11.94A11.39,11.39,0,0,0,1283.25,238.59Z"/><path class="cls-3" d="M1386.22,227.21h-68.79v11.38h57.5a11.6,11.6,0,0,0,8-3.36A11.29,11.29,0,0,0,1386.22,227.21Z"/><path class="cls-3" d="M1097.4,161.14h0a11.47,11.47,0,0,0-11.33,11.38H1144a11.47,11.47,0,0,0,11.33-11.38H1097.4Z"/><path class="cls-3" d="M522.19,124.19h0a11.47,11.47,0,0,0-11.33,11.38h58a11.47,11.47,0,0,0,11.33-11.38h-58Z"/><path class="cls-3" d="M160.4,328.65h0A11.47,11.47,0,0,0,149.07,340H207a11.47,11.47,0,0,0,11.33-11.38H160.4v0Z"/><circle class="cls-3" cx="455.78" cy="206.18" r="5.69"/><circle class="cls-3" cx="292.64" cy="68.12" r="5.69"/><path class="cls-3" d="M1171.11,294.46h23.22V283.08H1182.4a11.6,11.6,0,0,0-8,3.36A11.87,11.87,0,0,0,1171.11,294.46Z"/><circle class="cls-3" cx="1153.9" cy="289" r="5.69"/><circle class="cls-3" cx="1195.57" cy="261.12" r="5.69"/><circle class="cls-3" cx="616.67" cy="153.99" r="5.69"/><circle class="cls-3" cx="600.21" cy="153.99" r="5.69"/><circle class="cls-3" cx="1071.05" cy="167.11" r="5.69"/><circle class="cls-3" cx="1118.2" cy="199.69" r="5.69"/><circle class="cls-3" cx="594.99" cy="260.84" r="5.69"/><circle class="cls-3" cx="611.59" cy="260.84" r="5.69"/><circle class="cls-3" cx="1114.98" cy="260.84" r="5.69"/><circle class="cls-3" cx="391.8" cy="180.11" r="5.69"/><circle class="cls-3" cx="1211.7" cy="167.11" r="5.69"/><circle class="cls-3" cx="1131.58" cy="260.84" r="5.69"/><path class="cls-3" d="M474.9,123.91H440.3v11.38h23.32a11.6,11.6,0,0,0,8-3.36A11.29,11.29,0,0,0,474.9,123.91Z"/><path class="cls-3" d="M650.81,123.91h-34.6v11.38h23.32a11.6,11.6,0,0,0,8-3.36A11.29,11.29,0,0,0,650.81,123.91Z"/><circle class="cls-3" cx="489.92" cy="129.88" r="5.69"/><circle class="cls-3" cx="409.33" cy="129.6" r="5.69"/><circle class="cls-3" cx="425.93" cy="129.6" r="5.69"/><circle class="cls-3" cx="253.47" cy="286.49" r="5.69"/><circle class="cls-3" cx="270.08" cy="286.49" r="5.69"/><circle class="cls-3" cx="535.15" cy="153.99" r="5.69"/><circle class="cls-3" cx="338.96" cy="233.41" r="5.69"/><path class="cls-3" d="M255.71,43.63h0A11.47,11.47,0,0,0,244.38,55h35.07a11.47,11.47,0,0,0,11.33-11.38H255.71Z"/><path class="cls-3" d="M1293.17,35.64a11.94,11.94,0,0,0-11.94,11.89h11.94V35.64Z"/><path class="cls-3" d="M1281.28,47.53a11.94,11.94,0,0,0,11.89,11.94V47.53h-11.89Z"/><path class="cls-3" d="M1293.17,47.49a11.94,11.94,0,0,0,11.94-11.89h-11.94V47.49Z"/><path class="cls-3" d="M116.91,69.6a11.94,11.94,0,0,1,11.94,11.89H116.91V69.6Z"/><path class="cls-3" d="M128.8,81.49a11.94,11.94,0,0,1-11.89,11.94V81.49H128.8Z"/><path class="cls-3" d="M117,81.49a11.94,11.94,0,0,1-12-11.88h12V81.49Z"/><path class="cls-3" d="M1472.67,363.54a11.94,11.94,0,0,0-11.94,11.89h11.94V363.54Z"/><path class="cls-3" d="M1472.63,375.43a11.94,11.94,0,0,0,11.94-11.89h-11.94v11.89Z"/><path class="cls-3" d="M1469.09,21a11.94,11.94,0,0,0-11.94,11.89h11.94V21Z"/><path class="cls-3" d="M1469,32.84A11.94,11.94,0,0,0,1481,21h-12V32.84Z"/><path class="cls-3" d="M62.86,106.4a11.94,11.94,0,0,0-11.94,11.89H62.86V106.4Z"/><path class="cls-3" d="M62.81,118.29A11.94,11.94,0,0,0,74.75,106.4H62.81v11.89h0Z"/><path class="cls-3" d="M1403.93,102.19A11.94,11.94,0,0,0,1392,114.08h11.94V102.19h0Z"/><path class="cls-3" d="M1380.43,74.25a11.94,11.94,0,0,0-11.94,11.89h11.94V74.25Z"/><path class="cls-3" d="M1511.66,21.46a11.94,11.94,0,0,0-11.94,11.89h11.94V21.46Z"/><path class="cls-3" d="M1403.93,114.08a11.94,11.94,0,0,0,11.94-11.89h-11.94v11.89Z"/><path class="cls-3" d="M807.35,75.55a11.94,11.94,0,0,0,11.94-11.89H807.35V75.55Z"/><path class="cls-3" d="M1372.6,58.91h23.22V47.53h-11.94a11.6,11.6,0,0,0-8,3.36A11.87,11.87,0,0,0,1372.6,58.91Z"/><path class="cls-3" d="M1325.6,315.39h23.22V304h-11.93a11.6,11.6,0,0,0-8,3.36A11.46,11.46,0,0,0,1325.6,315.39Z"/><path class="cls-3" d="M1408.69,139.45h23.22V128.07H1420a11.6,11.6,0,0,0-8,3.36A11.46,11.46,0,0,0,1408.69,139.45Z"/><path class="cls-3" d="M1539,128.07h0a11.47,11.47,0,0,0-11.33,11.38h35.07a11.47,11.47,0,0,0,11.33-11.38H1539Z"/><path class="cls-3" d="M1349.88,102.19h0a11.47,11.47,0,0,0-11.33,11.38h35.07a11.47,11.47,0,0,0,11.33-11.38h-35.07Z"/><path class="cls-3" d="M1448.38,21.46h-23.22V32.84h11.94a11.6,11.6,0,0,0,8-3.36A11.46,11.46,0,0,0,1448.38,21.46Z"/><path class="cls-3" d="M1527.38,363.54h-34.6v11.38h23.31a11.6,11.6,0,0,0,8-3.36A11.29,11.29,0,0,0,1527.38,363.54Z"/><path class="cls-3" d="M1364.95,47.53h-34.6V58.91h23.32a11.6,11.6,0,0,0,8-3.36A11.37,11.37,0,0,0,1364.95,47.53Z"/><path class="cls-3" d="M1534.66,102.19h-46v11.38h34.7a11.6,11.6,0,0,0,8-3.36A11.15,11.15,0,0,0,1534.66,102.19Z"/><path class="cls-3" d="M1412,74.77h-23.22V86.15h11.94a11.6,11.6,0,0,0,8-3.36A11.37,11.37,0,0,0,1412,74.77Z"/><path class="cls-3" d="M1308,86.15h46V74.77h-34.74a11.6,11.6,0,0,0-8,3.36A11.46,11.46,0,0,0,1308,86.15Z"/><path class="cls-3" d="M1328.94,139.22h68.79V127.84h-57.46a11.6,11.6,0,0,0-8,3.36A11.34,11.34,0,0,0,1328.94,139.22Z"/><path class="cls-3" d="M1195.61,59.42h68.79V48h-57.5a11.6,11.6,0,0,0-8,3.36A11.29,11.29,0,0,0,1195.61,59.42Z"/><path class="cls-3" d="M83.38,117.82H106.6V106.44H94.66a11.6,11.6,0,0,0-8,3.36A11.29,11.29,0,0,0,83.38,117.82Z"/><path class="cls-3" d="M164,106.4H118v11.38h34.7A11.47,11.47,0,0,0,164,106.4Z"/><path class="cls-3" d="M1326,375h23.22V363.58h-11.94a11.6,11.6,0,0,0-8,3.36A11.29,11.29,0,0,0,1326,375Z"/><path class="cls-3" d="M1406.59,363.54h-46v11.38h34.7a11.6,11.6,0,0,0,8-3.36A11.15,11.15,0,0,0,1406.59,363.54Z"/><path class="cls-3" d="M1511.66,128.07h-68.79v11.38h57.5a11.6,11.6,0,0,0,8-3.36A11.37,11.37,0,0,0,1511.66,128.07Z"/><path class="cls-3" d="M1537.14,339.43h0a11.47,11.47,0,0,0-11.33,11.38h58a11.47,11.47,0,0,0,11.28-11.38h-57.95Z"/><circle class="cls-3" cx="1410" cy="53.22" r="5.69"/><circle class="cls-3" cx="1308.35" cy="309.98" r="5.69"/><circle class="cls-3" cx="31.33" cy="112.09" r="5.69"/><circle class="cls-3" cx="14.87" cy="112.09" r="5.69"/><circle class="cls-3" cx="1549.21" cy="107.88" r="5.69"/><circle class="cls-3" cx="1346.01" cy="27.15" r="5.69"/><path class="cls-3" d="M1489.85,339.15h-34.6v11.38h23.32a11.6,11.6,0,0,0,8-3.36A11.29,11.29,0,0,0,1489.85,339.15Z"/><path class="cls-3" d="M65.47,82H30.87V93.38H54.18a11.6,11.6,0,0,0,8-3.36A11.29,11.29,0,0,0,65.47,82Z"/><circle class="cls-3" cx="1504.87" cy="345.12" r="5.69"/><circle class="cls-3" cx="1424.28" cy="344.84" r="5.69"/><circle class="cls-3" cx="1440.89" cy="344.84" r="5.69"/><circle class="cls-3" cx="1093.69" cy="133.53" r="5.69"/><circle class="cls-3" cx="1110.29" cy="133.53" r="5.69"/><circle class="cls-3" cx="794.29" cy="69.34" r="5.69"/><circle class="cls-3" cx="1293.17" cy="80.46" r="5.69"/><path class="cls-3" d="M1276.8,363.54h0a11.47,11.47,0,0,0-11.33,11.38h35.07a11.47,11.47,0,0,0,11.33-11.38H1276.8Z"/></svg>